<svg width="353" height="361" xmlns="http://www.w3.org/2000/svg">

 <g>
  <title>Layer 1</title>
  <path d="m44,79c1,0 1.86121,-1.3898 7,-3c12.73129,-3.98926 37.04179,-6.79468 67,-13c28.04044,-5.80809 51.39502,-12.29051 68,-22c14.36737,-8.40109 21.14386,-14.90654 25,-21c3.1181,-4.92722 5,-8 7,-10c1,-1 1.29291,-1.29289 2,-2c0.70709,-0.70711 0,-1 1,-1c0,0 0.21179,-1.61541 1,-1c3.24985,2.53741 5.10345,12.95215 12,28c9.13751,19.93755 20.19391,42.90402 32,67c12.2012,24.90242 24.38715,50.38071 37,70c10.49988,16.33255 21.76111,31.52609 29,44c4.48938,7.73599 7.34314,13.87604 9,19c1.26855,3.9231 2.78986,8.07843 4,11c0.85571,2.06586 1,3 2,3c0,0 0,0 0,1c0,0 -1.0444,-0.08643 -5,2c-9.10651,4.80331 -24.89743,13.1987 -48,25c-31.8609,16.27524 -65.72049,30.73987 -94,41c-20.80872,7.54965 -35,13 -43,16l-4,2" id="svg_33" stroke-width="10" stroke="#000" fill="none"/>
  <path d="m46,85c0,0 -0.36655,0.02248 0,3c1.00755,8.18443 6.59329,20.18633 15,38c10.49754,22.24414 22.57928,44.20505 32,63c8.61934,17.19614 15.32169,33.33563 23,48c6.44418,12.3074 14.93759,26.03586 23,40c6.94635,12.03113 12.29547,22.88681 16,33c3.26306,8.90799 6,16 8,21c2,5 4,9 6,12c2,3 3,4 4,5l0,1" id="svg_35" stroke-width="10" stroke="#000" fill="none"/>
  <path d="m6,97c0,0 1,0 2,0c4,0 8.64734,-0.04033 12,-3c2.703,-2.38617 4.97252,-6.64749 6,-11c0.4595,-1.9465 0,-3 0,-3c0,0 0,0 -1,0c-3,0 -6.40163,2.8412 -9,10c-3.56204,9.81386 -5.99658,21.87593 -7,34c-0.8248,9.96593 -0.53554,17.46446 3,21c3.53554,3.53552 10.02921,5.59122 16,5c5.0742,-0.50244 9.22273,-3.724 13,-7c2.13675,-1.8532 4.49345,-4.87856 5,-8c0.32036,-1.97418 0.76537,-3.15224 0,-5c-0.5412,-1.30656 -3.22836,-2.14806 -6,-1c-2.61313,1.0824 -4.5414,7.88382 -6,16c-1.60173,8.9126 -2.10837,18.25058 0,25c2.00017,6.40308 7.62062,10.92554 14,13c5.78461,1.88107 11,2 16,2c5,0 9.31001,-0.33749 12,-2c2.40601,-1.487 3,-3 4,-4c1,-1 1,-2 1,-2c-1,0 -1.49345,1.87857 -2,5c-0.80092,4.93542 -0.50378,11.01761 -1,18c-0.50127,7.05328 -1,15 -1,22c0,5 0.47231,11.47232 5,16c4.52769,4.52768 8.71201,7.98163 14,9c4.90977,0.94553 8.07843,1.21014 11,0c2.06586,-0.85571 3.29291,-3.29291 4,-4c0.70709,-0.70709 1,0 1,2c0,4 -0.56711,10.02011 0,18c0.50125,7.05328 3.38458,14.34946 7,20c3.45099,5.39359 7.88153,9.19028 11,11c1.93399,1.12234 4.16797,0.07965 6,-4c2.20605,-4.91257 3.49347,-8.87857 4,-12c0.32037,-1.97418 -1.37134,-2.25327 -4,2c-4.70227,7.60846 -8.49161,19.76184 -10,34c-1.26422,11.93323 -1.60828,20.18726 0,27c1.54123,6.52875 8,9 12,11c4,2 9,2 12,2l3,0" id="svg_37" stroke-width="10" stroke="#000" fill="none"/>
  <path d="m80,100c0,0 0,0 2,0c4,0 13.03748,0.90729 24,0c12.12408,-1.00342 23,-5 34,-8c11,-3 20.47955,-3.76213 27,-7c4.47827,-2.22377 9.133,-4.5695 13,-6c4.19434,-1.55159 7,-4 10,-7c1,-1 2,-3 3,-3l0,-1l1,0l0,0" id="svg_39" stroke-width="10" stroke="#000" fill="none"/>
  <path d="m95,129c1,0 2,0 5,0c6,0 12.04495,-0.26691 18,-1c4.09222,-0.50377 7,-2 8,-2c1,0 2,0 2,0l2,-1l1,0l1,0" id="svg_40" stroke-width="10" stroke="#000" fill="none"/>
  <path d="m110,163c0,0 0,0 0,0c1,0 3.14221,0.63904 9,-1c5.18597,-1.45105 10.86829,-4.28857 15,-6c2.92157,-1.21014 5.1731,-2.85272 6,-4c1.30746,-1.814 2,-3 3,-3l0,-1l1,0" id="svg_41" stroke-width="10" stroke="#000" fill="none"/>
  <path d="m127,184c0,0 2.06458,0.8009 7,0c6.24289,-1.01309 13.20956,-5.64011 22,-11c9.23529,-5.63113 17.33206,-9.46808 24,-14c5.29575,-3.5993 9,-6 13,-8c2,-1 6.15927,-1.61066 9,-3c3.23892,-1.58411 6,-3 10,-5c4,-2 7.13202,-2.75531 11,-5c3.11847,-1.80972 4,-3 5,-3l1,-1l0,0" id="svg_42" stroke-width="10" stroke="#000" fill="none"/>
  <path d="m146,207c0,0 3.31,0.66251 6,-1c2.40601,-1.487 3.70547,-4.34619 6,-6c1.814,-1.30746 4,-2 6,-2c0,0 1,0 1,0l1,0" id="svg_43" stroke-width="10" stroke="#000" fill="none"/>
  <path d="m158,228c0,0 0.61292,-0.76859 6,-3c3.80927,-1.57785 8.87604,-3.34314 14,-5c3.9231,-1.26855 9.08743,-2.79395 14,-5c4.07965,-1.83203 8.31,-3.33749 11,-5c2.40601,-1.487 4.186,-3.69254 6,-5c1.14728,-0.8269 2.29291,-0.29291 3,-1c0.70709,-0.70709 0,-1 0,-2l0,-1l1,-1" id="svg_44" stroke-width="10" stroke="#000" fill="none"/>
  <path d="m172,253c1,0 3.07507,0.37668 9,-1c10.1694,-2.36288 22.25623,-6.37897 35,-12c12.27536,-5.4144 21.66483,-12.40265 30,-19c6.74515,-5.33881 11,-9 15,-13c2,-2 4,-4 5,-5c1,-1 2,-2 2,-3l1,0l0,0" id="svg_46" stroke-width="10" stroke="#000" fill="none"/>
  <path d="m186,288c0,0 1.00967,0.3107 6,0c8.04669,-0.50098 21.12137,-5.77917 34,-13c12.11771,-6.79419 22.61716,-13.12686 30,-19c4.42694,-3.52167 7,-6 8,-6c0,0 0,-1 1,-3l1,-1l1,-1" id="svg_47" stroke-width="10" stroke="#000" fill="none"/>
  <path d="m27.5,86.5c0,1 -0.3019,3.0582 1,9c2.44034,11.13754 7,26 13,39c6,13 12.10013,27.96034 18,43c5.08655,12.96638 9.37898,26.25621 15,39c5.41441,12.27534 10.64012,24.20956 16,33c3.75408,6.15686 6.8819,11.07278 10,16c7.71227,12.18692 10.75532,16.13202 13,20c1.80972,3.11847 5.19409,6.88855 8,12c3.22805,5.88046 7.37134,11.74673 10,16c2.35114,3.80423 4.4588,6.69345 5,8c0.38269,0.92389 1,2 2,3c0,0 0,0 1,1c1,1 2,2 4,4l0,1l1,1" id="svg_52" stroke-width="10" stroke="#000" fill="none"/>
  <polyline stroke-linecap="round" id="svg_55" points="496.5,-10.5 497.5,-10.5 " stroke-width="10" stroke="#000" fill="none"/>
 </g>
</svg>